<svg class="svg-icon" style="width: 1em; height: 1em;vertical-align: middle;fill: currentColor;overflow: hidden;" viewBox="0 0 1024 1024" version="1.1" xmlns="http://www.w3.org/2000/svg"><path d="M570.1 637.5h-318c-11.9 0-21.5-7.2-21.5-16s9.6-16 21.5-16h318.1c11.9 0 21.5 7.2 21.5 16s-9.7 16-21.6 16zM679.7 858.9c-8.8 0-17.3-2.7-24.5-7.9l-80.6-58c-18.8-13.5-23.1-39.8-9.5-58.5l164-227.9c7.9-10.9 20.6-17.4 34.1-17.4 8.8 0 17.3 2.7 24.5 7.9l80.6 58c18.8 13.5 23.1 39.8 9.5 58.5l-164 227.9c-7.9 10.9-20.6 17.4-34.1 17.4z m83.5-337.7c-3.2 0-6.2 1.5-8.1 4.1l-164 227.9c-3.2 4.4-2.2 10.7 2.3 13.9l80.6 58c2.2 1.5 4.3 1.9 5.8 1.9 3.2 0 6.2-1.5 8.1-4.1l164-227.9c3.2-4.4 2.2-10.7-2.3-13.9L769 523c-2.2-1.5-4.4-1.8-5.8-1.8z" fill="" /><path d="M556.5 921c-3.3 0-6.6-1-9.3-3-4.6-3.3-7.2-8.9-6.6-14.6l13.8-140.6c0.6-5.7 4.1-10.6 9.3-13 5.2-2.4 11.3-1.8 15.9 1.6l114.9 82.3c4.6 3.3 7.2 8.9 6.6 14.6-0.6 5.7-4.1 10.6-9.3 13l-128.7 58.4c-2.1 0.8-4.4 1.3-6.6 1.3z m27-127.5l-8.4 85.5 78.2-35.5-69.8-50zM821.6 667.2c-3.2 0-6.5-1-9.3-3l-107.5-77.3c-7.2-5.2-8.8-15.2-3.6-22.3 5.2-7.2 15.2-8.8 22.3-3.6L831 638.3c7.2 5.2 8.8 15.2 3.6 22.3-3.2 4.3-8.1 6.6-13 6.6zM247 525.4c-3.7 0-7.3-1.3-10.4-3.8-6.7-5.7-7.5-15.8-1.8-22.6l111-130.5c2.8-3.3 6.8-5.3 11.1-5.6 4.3-0.3 8.5 1.1 11.7 4l126.5 112.6L635.9 329c6-6.5 16.2-6.8 22.6-0.8 6.5 6 6.8 16.2 0.8 22.6L508 512.8c-5.9 6.3-15.8 6.8-22.3 1L359.6 401.7l-100.4 118c-3.1 3.8-7.6 5.7-12.2 5.7z" fill="" /><path d="M669.1 458.6c-8.8 0-16-7.2-16-16V331.1H541.7c-8.8 0-16-7.2-16-16s7.2-16 16-16h143.5v143.5c-0.1 8.8-7.2 16-16.1 16z" fill="" /><path d="M435 859.6H195.5c-9.5 0-17.2-7.7-17.2-17.2V172c0-9.5 7.7-17.2 17.2-17.2h532.4c9.5 0 17.2 7.7 17.2 17.2v236.7c0 8.8 7.2 16 16 16s16-7.2 16-16V172c0-27.2-22-49.2-49.2-49.2H195.5c-27.2 0-49.2 22-49.2 49.2v670.4c0 27.2 22 49.2 49.2 49.2H435c8.8 0 16-7.2 16-16s-7.2-16-16-16z" fill="" /></svg>